<svg width="177" height="56" viewBox="0 0 177 56" fill="none" xmlns="http://www.w3.org/2000/svg">
<rect width="177" height="56" rx="28" fill="#F4F4F4"/>
<g clip-path="url(#clip0_93_23)">
<path d="M28 56C43.464 56 56 43.464 56 28C56 12.536 43.464 0 28 0C12.536 0 0 12.536 0 28C0 43.464 12.536 56 28 56Z" fill="#167974"/>
<path fill-rule="evenodd" clip-rule="evenodd" d="M23 19V37L28 31.942L33 37V19H23Z" fill="white"/>
</g>
<path d="M73.8075 33C73.2675 33 72.765 33 72.3 33C71.84 33 71.42 33 71.04 33C70.665 33 70.335 33 70.05 33C70.05 32.425 70.05 31.8675 70.05 31.3275C70.05 30.7875 70.05 30.1825 70.05 29.5125V25.8825C70.05 25.1925 70.05 24.57 70.05 24.015C70.05 23.46 70.05 22.89 70.05 22.305C70.655 22.305 71.335 22.305 72.09 22.305C72.845 22.305 73.6075 22.305 74.3775 22.305C75.1075 22.305 75.7175 22.365 76.2075 22.485C76.7025 22.6 77.095 22.7675 77.385 22.9875C77.68 23.2025 77.89 23.46 78.015 23.76C78.145 24.06 78.21 24.395 78.21 24.765C78.21 25.22 78.125 25.615 77.955 25.95C77.785 26.285 77.5525 26.5625 77.2575 26.7825C76.9625 26.9975 76.63 27.1525 76.26 27.2475V27.435C76.685 27.53 77.0625 27.6775 77.3925 27.8775C77.7275 28.0775 77.9875 28.35 78.1725 28.695C78.3575 29.04 78.45 29.475 78.45 30C78.45 30.45 78.3775 30.86 78.2325 31.23C78.0925 31.595 77.8475 31.91 77.4975 32.175C77.1525 32.44 76.68 32.645 76.08 32.79C75.48 32.93 74.7225 33 73.8075 33ZM72.4725 31.1475H74.0325C74.4625 31.1475 74.815 31.095 75.09 30.99C75.37 30.885 75.575 30.7325 75.705 30.5325C75.835 30.3325 75.9 30.085 75.9 29.79C75.9 29.345 75.75 29.0175 75.45 28.8075C75.15 28.5925 74.7175 28.485 74.1525 28.485H71.8875V26.7525H74.0475C74.4125 26.7525 74.715 26.695 74.955 26.58C75.195 26.46 75.3725 26.3 75.4875 26.1C75.6075 25.9 75.6675 25.6675 75.6675 25.4025C75.6675 24.9875 75.545 24.675 75.3 24.465C75.055 24.25 74.6825 24.1425 74.1825 24.1425H72.4725C72.4725 24.4875 72.4725 24.84 72.4725 25.2C72.4725 25.56 72.4725 25.97 72.4725 26.43V28.98C72.4725 29.41 72.4725 29.7975 72.4725 30.1425C72.4725 30.4825 72.4725 30.8175 72.4725 31.1475ZM83.4466 33.2025C82.7666 33.2025 82.1741 33.095 81.6691 32.88C81.1691 32.665 80.7541 32.3725 80.4241 32.0025C80.0991 31.6325 79.8541 31.21 79.6891 30.735C79.5291 30.255 79.4491 29.755 79.4491 29.235C79.4491 28.49 79.5991 27.8225 79.8991 27.2325C80.2041 26.6375 80.6491 26.17 81.2341 25.83C81.8241 25.485 82.5466 25.3125 83.4016 25.3125C84.0616 25.3125 84.6391 25.4125 85.1341 25.6125C85.6341 25.8075 86.0491 26.085 86.3791 26.445C86.7141 26.8 86.9641 27.2175 87.1291 27.6975C87.2941 28.1725 87.3766 28.685 87.3766 29.235C87.3766 29.99 87.2241 30.6675 86.9191 31.2675C86.6141 31.8625 86.1691 32.335 85.5841 32.685C84.9991 33.03 84.2866 33.2025 83.4466 33.2025ZM83.4391 31.3725C83.8141 31.3725 84.1216 31.2725 84.3616 31.0725C84.6066 30.8675 84.7891 30.6025 84.9091 30.2775C85.0341 29.9525 85.0966 29.605 85.0966 29.235C85.0966 28.795 85.0266 28.42 84.8866 28.11C84.7466 27.795 84.5516 27.555 84.3016 27.39C84.0516 27.225 83.7616 27.1425 83.4316 27.1425C83.0616 27.1425 82.7491 27.235 82.4941 27.42C82.2441 27.605 82.0541 27.855 81.9241 28.17C81.7991 28.485 81.7366 28.84 81.7366 29.235C81.7366 29.605 81.7991 29.9525 81.9241 30.2775C82.0541 30.6025 82.2441 30.8675 82.4941 31.0725C82.7491 31.2725 83.0641 31.3725 83.4391 31.3725ZM92.4115 33.2025C91.7315 33.2025 91.139 33.095 90.634 32.88C90.134 32.665 89.719 32.3725 89.389 32.0025C89.064 31.6325 88.819 31.21 88.654 30.735C88.494 30.255 88.414 29.755 88.414 29.235C88.414 28.49 88.564 27.8225 88.864 27.2325C89.169 26.6375 89.614 26.17 90.199 25.83C90.789 25.485 91.5115 25.3125 92.3665 25.3125C93.0265 25.3125 93.604 25.4125 94.099 25.6125C94.599 25.8075 95.014 26.085 95.344 26.445C95.679 26.8 95.929 27.2175 96.094 27.6975C96.259 28.1725 96.3415 28.685 96.3415 29.235C96.3415 29.99 96.189 30.6675 95.884 31.2675C95.579 31.8625 95.134 32.335 94.549 32.685C93.964 33.03 93.2515 33.2025 92.4115 33.2025ZM92.404 31.3725C92.779 31.3725 93.0865 31.2725 93.3265 31.0725C93.5715 30.8675 93.754 30.6025 93.874 30.2775C93.999 29.9525 94.0615 29.605 94.0615 29.235C94.0615 28.795 93.9915 28.42 93.8515 28.11C93.7115 27.795 93.5165 27.555 93.2665 27.39C93.0165 27.225 92.7265 27.1425 92.3965 27.1425C92.0265 27.1425 91.714 27.235 91.459 27.42C91.209 27.605 91.019 27.855 90.889 28.17C90.764 28.485 90.7015 28.84 90.7015 29.235C90.7015 29.605 90.764 29.9525 90.889 30.2775C91.019 30.6025 91.209 30.8675 91.459 31.0725C91.714 31.2725 92.029 31.3725 92.404 31.3725ZM102.576 33C102.356 32.69 102.134 32.3825 101.909 32.0775C101.684 31.7725 101.461 31.47 101.241 31.17L100.394 30.0075H99.8313V28.5225H100.431L101.174 27.4575C101.404 27.1375 101.631 26.815 101.856 26.49C102.086 26.16 102.314 25.835 102.539 25.515H105.141C104.781 25.97 104.424 26.42 104.069 26.865C103.714 27.31 103.359 27.7575 103.004 28.2075L101.946 29.5275L101.849 28.5375L103.154 30.27C103.519 30.725 103.881 31.1825 104.241 31.6425C104.601 32.0975 104.961 32.55 105.321 33H102.576ZM97.7838 33C97.7838 32.465 97.7838 31.9475 97.7838 31.4475C97.7838 30.9425 97.7838 30.38 97.7838 29.76V25.5975C97.7838 24.9875 97.7838 24.385 97.7838 23.79C97.7838 23.195 97.7838 22.6 97.7838 22.005L100.026 21.81C100.026 22.4 100.026 23.0075 100.026 23.6325C100.026 24.2525 100.026 24.9075 100.026 25.5975V30.195C100.026 30.7 100.026 31.175 100.026 31.62C100.026 32.06 100.026 32.52 100.026 33H97.7838ZM106.397 33C106.397 32.465 106.397 31.9475 106.397 31.4475C106.397 30.9425 106.397 30.38 106.397 29.76V29.01C106.397 28.435 106.397 27.8575 106.397 27.2775C106.397 26.6975 106.397 26.11 106.397 25.515L108.28 25.4025L108.377 26.7H108.565C108.735 26.46 108.935 26.235 109.165 26.025C109.395 25.81 109.66 25.6375 109.96 25.5075C110.265 25.3775 110.61 25.3125 110.995 25.3125C111.57 25.3125 112.015 25.4575 112.33 25.7475C112.65 26.0325 112.865 26.445 112.975 26.985L113.125 27.0075C113.155 27.1525 113.177 27.305 113.192 27.465C113.212 27.62 113.222 27.785 113.222 27.96C113.222 28.29 113.222 28.5975 113.222 28.8825C113.222 29.1625 113.222 29.455 113.222 29.76C113.222 30.37 113.222 30.93 113.222 31.44C113.222 31.945 113.222 32.465 113.222 33H110.98C110.98 32.465 110.98 31.9475 110.98 31.4475C110.98 30.9475 110.98 30.425 110.98 29.88V28.68C110.98 28.24 110.91 27.91 110.77 27.69C110.635 27.465 110.392 27.3525 110.042 27.3525C109.837 27.3525 109.65 27.3975 109.48 27.4875C109.31 27.5775 109.155 27.6975 109.015 27.8475C108.875 27.9925 108.75 28.1525 108.64 28.3275V29.88C108.64 30.44 108.64 30.9675 108.64 31.4625C108.64 31.9525 108.64 32.465 108.64 33H106.397ZM115.532 33C115.532 32.465 115.532 31.9475 115.532 31.4475C115.532 30.9475 115.532 30.425 115.532 29.88V28.68C115.532 28.24 115.465 27.91 115.33 27.69C115.195 27.465 114.95 27.3525 114.595 27.3525C114.39 27.3525 114.202 27.3975 114.032 27.4875C113.862 27.5725 113.705 27.69 113.56 27.84C113.42 27.985 113.295 28.1475 113.185 28.3275L112.847 26.715H113.042C113.222 26.47 113.432 26.24 113.672 26.025C113.912 25.81 114.187 25.6375 114.497 25.5075C114.812 25.3775 115.165 25.3125 115.555 25.3125C116.3 25.3125 116.855 25.5375 117.22 25.9875C117.59 26.4325 117.775 27.09 117.775 27.96C117.775 28.29 117.775 28.5975 117.775 28.8825C117.775 29.1625 117.775 29.455 117.775 29.76C117.775 30.37 117.775 30.93 117.775 31.44C117.775 31.945 117.775 32.465 117.775 33H115.532ZM121.241 33.18C120.811 33.18 120.436 33.09 120.116 32.91C119.796 32.73 119.546 32.4775 119.366 32.1525C119.186 31.8225 119.096 31.4325 119.096 30.9825C119.096 30.5575 119.171 30.2025 119.321 29.9175C119.471 29.6275 119.663 29.3925 119.898 29.2125C120.138 29.0325 120.398 28.895 120.678 28.8C120.963 28.705 121.241 28.635 121.511 28.59L123.596 28.2675C123.606 27.9775 123.551 27.7525 123.431 27.5925C123.311 27.4275 123.136 27.3125 122.906 27.2475C122.681 27.1825 122.411 27.15 122.096 27.15C121.926 27.15 121.741 27.165 121.541 27.195C121.341 27.22 121.131 27.26 120.911 27.315C120.696 27.37 120.471 27.4375 120.236 27.5175C120.006 27.5975 119.773 27.695 119.538 27.81L119.433 25.8975C119.618 25.8325 119.831 25.765 120.071 25.695C120.311 25.625 120.571 25.5625 120.851 25.5075C121.131 25.4475 121.426 25.4 121.736 25.365C122.051 25.33 122.373 25.3125 122.703 25.3125C123.328 25.3125 123.861 25.405 124.301 25.59C124.746 25.77 125.086 26.055 125.321 26.445C125.556 26.835 125.673 27.345 125.673 27.975C125.673 28.22 125.673 28.52 125.673 28.875C125.673 29.23 125.673 29.5475 125.673 29.8275V30.54C125.673 30.92 125.673 31.3125 125.673 31.7175C125.673 32.1175 125.673 32.545 125.673 33H123.761L123.618 32.0025H123.446C123.311 32.1925 123.141 32.38 122.936 32.565C122.731 32.745 122.486 32.8925 122.201 33.0075C121.921 33.1225 121.601 33.18 121.241 33.18ZM122.133 31.4475C122.308 31.4475 122.483 31.4075 122.658 31.3275C122.833 31.2425 122.996 31.125 123.146 30.975C123.296 30.82 123.426 30.6375 123.536 30.4275V29.28C123.476 29.325 123.398 29.3675 123.303 29.4075C123.213 29.4425 123.078 29.4825 122.898 29.5275C122.723 29.5675 122.478 29.62 122.163 29.685C121.983 29.72 121.828 29.78 121.698 29.865C121.568 29.95 121.466 30.06 121.391 30.195C121.321 30.325 121.286 30.48 121.286 30.66C121.286 30.945 121.371 31.1475 121.541 31.2675C121.716 31.3875 121.913 31.4475 122.133 31.4475ZM127.388 33C127.388 32.465 127.388 31.9475 127.388 31.4475C127.388 30.9425 127.388 30.38 127.388 29.76V29.01C127.388 28.435 127.388 27.8575 127.388 27.2775C127.388 26.6975 127.388 26.11 127.388 25.515L129.271 25.4025L129.368 26.7825H129.556C129.751 26.3775 129.966 26.07 130.201 25.86C130.436 25.645 130.676 25.5 130.921 25.425C131.166 25.35 131.401 25.3125 131.626 25.3125C131.741 25.3125 131.868 25.3225 132.008 25.3425C132.153 25.3625 132.288 25.3975 132.413 25.4475L132.218 27.6225C132.023 27.6075 131.848 27.595 131.693 27.585C131.538 27.575 131.373 27.57 131.198 27.57C131.058 27.57 130.913 27.585 130.763 27.615C130.618 27.645 130.476 27.705 130.336 27.795C130.196 27.885 130.066 28.01 129.946 28.17C129.826 28.33 129.721 28.5375 129.631 28.7925V29.88C129.631 30.44 129.631 30.9675 129.631 31.4625C129.631 31.9525 129.631 32.465 129.631 33H127.388ZM138.362 33C138.142 32.69 137.92 32.3825 137.695 32.0775C137.47 31.7725 137.247 31.47 137.027 31.17L136.18 30.0075H135.617V28.5225H136.217L136.96 27.4575C137.19 27.1375 137.417 26.815 137.642 26.49C137.872 26.16 138.1 25.835 138.325 25.515H140.927C140.567 25.97 140.21 26.42 139.855 26.865C139.5 27.31 139.145 27.7575 138.79 28.2075L137.732 29.5275L137.635 28.5375L138.94 30.27C139.305 30.725 139.667 31.1825 140.027 31.6425C140.387 32.0975 140.747 32.55 141.107 33H138.362ZM133.57 33C133.57 32.465 133.57 31.9475 133.57 31.4475C133.57 30.9425 133.57 30.38 133.57 29.76V25.5975C133.57 24.9875 133.57 24.385 133.57 23.79C133.57 23.195 133.57 22.6 133.57 22.005L135.812 21.81C135.812 22.4 135.812 23.0075 135.812 23.6325C135.812 24.2525 135.812 24.9075 135.812 25.5975V30.195C135.812 30.7 135.812 31.175 135.812 31.62C135.812 32.06 135.812 32.52 135.812 33H133.57ZM145.552 33.195C144.587 33.195 143.797 33.025 143.182 32.685C142.572 32.345 142.122 31.8775 141.832 31.2825C141.547 30.6875 141.405 30.005 141.405 29.235C141.405 28.465 141.54 27.785 141.81 27.195C142.08 26.605 142.482 26.145 143.017 25.815C143.557 25.48 144.227 25.3125 145.027 25.3125C145.707 25.3125 146.29 25.435 146.775 25.68C147.26 25.92 147.632 26.285 147.892 26.775C148.152 27.265 148.282 27.8825 148.282 28.6275C148.282 28.8275 148.277 29.005 148.267 29.16C148.257 29.315 148.24 29.47 148.215 29.625L146.295 28.8975C146.305 28.8325 146.312 28.765 146.317 28.695C146.322 28.625 146.325 28.56 146.325 28.5C146.325 27.995 146.205 27.6 145.965 27.315C145.73 27.025 145.425 26.88 145.05 26.88C144.765 26.88 144.512 26.965 144.292 27.135C144.072 27.3 143.9 27.5325 143.775 27.8325C143.65 28.1325 143.587 28.49 143.587 28.905V29.2725C143.587 29.7075 143.665 30.08 143.82 30.39C143.98 30.7 144.225 30.9375 144.555 31.1025C144.885 31.2675 145.307 31.35 145.822 31.35C146.022 31.35 146.252 31.3325 146.512 31.2975C146.777 31.2575 147.045 31.2 147.315 31.125C147.59 31.045 147.845 30.945 148.08 30.825L148.155 32.715C147.96 32.805 147.732 32.8875 147.472 32.9625C147.217 33.0325 146.927 33.0875 146.602 33.1275C146.277 33.1725 145.927 33.195 145.552 33.195ZM142.267 29.625V28.425L146.91 28.3275L148.215 28.695V29.625H142.267ZM152.323 33.2025C151.638 33.2025 151.073 33.0175 150.628 32.6475C150.183 32.2775 149.853 31.7925 149.638 31.1925C149.423 30.5925 149.315 29.945 149.315 29.25C149.315 28.505 149.428 27.835 149.653 27.24C149.883 26.645 150.223 26.175 150.673 25.83C151.123 25.485 151.68 25.3125 152.345 25.3125C152.64 25.3125 152.913 25.3525 153.163 25.4325C153.413 25.5075 153.633 25.6175 153.823 25.7625C154.018 25.9075 154.183 26.08 154.318 26.28H154.498V25.5975C154.498 24.9875 154.498 24.3875 154.498 23.7975C154.498 23.2025 154.498 22.605 154.498 22.005L156.733 21.81C156.733 22.4 156.733 23.0075 156.733 23.6325C156.733 24.2525 156.733 24.9075 156.733 25.5975V29.76C156.733 30.38 156.733 30.9425 156.733 31.4475C156.733 31.9475 156.733 32.465 156.733 33H154.835L154.7 32.0175H154.543C154.363 32.2725 154.16 32.4875 153.935 32.6625C153.715 32.8375 153.47 32.97 153.2 33.06C152.935 33.155 152.643 33.2025 152.323 33.2025ZM153.17 31.2975C153.375 31.2975 153.56 31.2625 153.725 31.1925C153.895 31.1225 154.043 31.025 154.168 30.9C154.298 30.775 154.408 30.6275 154.498 30.4575V27.9075C154.398 27.7675 154.278 27.6475 154.138 27.5475C154.003 27.4475 153.853 27.3725 153.688 27.3225C153.523 27.2675 153.353 27.24 153.178 27.24C152.828 27.24 152.535 27.3325 152.3 27.5175C152.07 27.7025 151.895 27.95 151.775 28.26C151.66 28.565 151.603 28.9 151.603 29.265C151.603 29.615 151.658 29.945 151.768 30.255C151.883 30.56 152.055 30.81 152.285 31.005C152.52 31.2 152.815 31.2975 153.17 31.2975Z" fill="#167974"/>
<defs>
<clipPath id="clip0_93_23">
<rect width="56" height="56" fill="white"/>
</clipPath>
</defs>
</svg>
